<?xml version="1.0" encoding="UTF-8"?>
<!-- Generator: https://ezgif.com/png-to-svg -->
<svg version="1.1" xmlns="http://www.w3.org/2000/svg" width="32" height="32">
<path d="M0,0 L2,0 L2,1 L3,1 L3,0 L5,0 L5,1 L6,1 L6,0 L9,0 L9,1 L10,1 L10,2 L11,2 L11,1 L13,1 L13,2 L14,2 L14,5 L15,5 L15,4 L17,4 L17,6 L19,6 L19,7 L21,7 L21,8 L20,8 L20,10 L19,10 L19,11 L20,11 L20,12 L21,12 L21,13 L22,13 L22,20 L20,20 L20,21 L21,21 L21,24 L20,24 L20,25 L17,25 L17,27 L18,27 L18,28 L14,28 L14,30 L9,30 L9,31 L8,31 L8,32 L7,32 L7,31 L5,31 L5,30 L4,30 L4,31 L0,31 L0,29 L-1,29 L-1,30 L-3,30 L-3,29 L-5,29 L-5,27 L-6,27 L-6,24 L-8,24 L-8,21 L-10,21 L-10,17 L-9,17 L-9,16 L-8,16 L-8,15 L-10,15 L-10,13 L-8,13 L-8,11 L-9,11 L-9,9 L-6,9 L-6,8 L-7,8 L-7,7 L-8,7 L-8,5 L-5,5 L-5,6 L-3,6 L-3,5 L-4,5 L-4,3 L-1,3 L-1,1 L0,1 Z " fill="#EFAA0B" transform="translate(10,0)"/>
<path d="M0,0 L4,0 L4,1 L5,1 L5,8 L6,8 L6,10 L7,10 L7,11 L8,11 L8,12 L11,12 L11,13 L19,13 L19,10 L20,10 L20,2 L23,2 L23,0 L24,0 L24,2 L25,2 L25,4 L26,4 L26,8 L28,8 L28,10 L26,10 L26,11 L27,11 L27,14 L26,14 L26,15 L23,15 L23,17 L24,17 L24,18 L20,18 L20,20 L15,20 L15,21 L14,21 L14,22 L13,22 L13,21 L11,21 L11,20 L10,20 L10,21 L6,21 L6,19 L5,19 L5,20 L3,20 L3,19 L1,19 L1,17 L0,17 L0,14 L-2,14 L-2,11 L-4,11 L-4,7 L-3,7 L-3,6 L-2,6 L-2,5 L-1,5 L-1,2 L0,2 Z " fill="#F7B404" transform="translate(4,10)"/>
<path d="M0,0 L3,0 L3,1 L7,1 L7,2 L8,2 L8,3 L9,3 L9,4 L10,4 L10,10 L9,10 L9,12 L7,12 L7,13 L-1,13 L-1,12 L-2,12 L-2,11 L-3,11 L-3,3 L-2,3 L-2,2 L-1,2 L-1,1 L0,1 Z " fill="#110704" transform="translate(13,9)"/>
<path d="M0,0 L2,0 L2,2 L4,2 L4,3 L6,3 L6,4 L5,4 L5,6 L4,6 L4,7 L5,7 L5,8 L6,8 L6,9 L7,9 L7,14 L5,14 L5,10 L4,10 L4,8 L3,8 L3,6 L2,6 L2,8 L-1,8 L-1,16 L-2,16 L-2,19 L-10,19 L-10,18 L-5,18 L-5,17 L-3,17 L-3,15 L-2,15 L-2,9 L-3,9 L-3,8 L-4,8 L-4,7 L-5,7 L-5,6 L-9,6 L-9,5 L-10,5 L-10,4 L-5,4 L-5,1 L0,1 Z " fill="#E99409" transform="translate(25,4)"/>
<path d="M0,0 L1,0 L1,1 L5,1 L5,3 L6,3 L6,5 L7,5 L7,7 L9,7 L9,9 L11,9 L11,12 L16,12 L16,13 L18,13 L18,15 L17,15 L17,14 L15,14 L15,13 L14,13 L14,14 L10,14 L10,12 L9,12 L9,13 L7,13 L7,12 L5,12 L5,10 L4,10 L4,7 L2,7 L2,4 L0,4 Z " fill="#E8AB0B" transform="translate(0,17)"/>
<path d="M0,0 L2,0 L2,1 L1,1 L1,2 L0,2 L0,3 L-1,3 L-1,5 L-2,5 L-2,10 L1,10 L1,9 L0,9 L0,6 L1,6 L1,8 L3,8 L3,9 L4,9 L4,10 L9,10 L9,12 L7,12 L7,13 L-1,13 L-1,12 L-2,12 L-2,11 L-3,11 L-3,3 L-2,3 L-2,2 L-1,2 L-1,1 L0,1 Z " fill="#391907" transform="translate(13,9)"/>
<path d="M0,0 L3,0 L3,1 L5,1 L5,2 L6,2 L6,3 L7,3 L7,5 L8,5 L8,6 L9,6 L9,7 L8,7 L8,13 L7,13 L7,6 L6,6 L6,5 L2,5 L2,7 L1,7 L1,10 L-2,10 L-2,8 L0,8 L0,6 L-1,6 L-1,4 L2,4 L2,3 L1,3 L1,2 L0,2 Z " fill="#D5940F" transform="translate(2,5)"/>
<path d="M0,0 L7,0 L7,3 L8,3 L8,11 L7,11 L7,14 L-1,14 L-1,13 L4,13 L4,12 L6,12 L6,10 L7,10 L7,4 L6,4 L6,3 L5,3 L5,2 L4,2 L4,1 L0,1 Z " fill="#B85804" transform="translate(16,9)"/>
<path d="M0,0 L1,0 L1,1 L4,1 L4,6 L3,6 L3,7 L2,7 L2,4 L0,4 Z " fill="#D5950E" transform="translate(0,17)"/>
</svg>
